<svg width="60" height="63" viewBox="0 0 60 63" fill="none" xmlns="http://www.w3.org/2000/svg">
<g filter="url(#filter0_d_16_4)">
<path fill-rule="evenodd" clip-rule="evenodd" d="M34.1908 10.7907C33.122 6.40311 26.878 6.40311 25.8092 10.7907C25.6497 11.45 25.3367 12.0623 24.8958 12.5778C24.4549 13.0933 23.8985 13.4974 23.2719 13.7573C22.6452 14.0171 21.9661 14.1253 21.2898 14.0732C20.6135 14.021 19.959 13.8099 19.3797 13.457C15.5208 11.1057 11.105 15.5214 13.4564 19.3802C14.9752 21.8721 13.6279 25.1234 10.7928 25.8125C6.40239 26.8784 6.40239 33.1251 10.7928 34.1882C11.4523 34.348 12.0648 34.6613 12.5803 35.1025C13.0958 35.5438 13.4998 36.1005 13.7594 36.7275C14.019 37.3544 14.1269 38.0338 14.0742 38.7103C14.0215 39.3868 13.8098 40.0413 13.4564 40.6205C11.105 44.4793 15.5208 48.895 19.3797 46.5437C19.9589 46.1903 20.6134 45.9786 21.2899 45.9259C21.9665 45.8732 22.6459 45.9811 23.2728 46.2407C23.8997 46.5003 24.4565 46.9043 24.8978 47.4198C25.339 47.9353 25.6523 48.5477 25.8121 49.2072C26.878 53.5976 33.1248 53.5976 34.1879 49.2072C34.3483 48.5481 34.6618 47.9361 35.1032 47.4209C35.5445 46.9058 36.1012 46.502 36.728 46.2425C37.3547 45.983 38.0339 45.875 38.7102 45.9274C39.3865 45.9797 40.041 46.1909 40.6203 46.5437C44.4792 48.895 48.895 44.4793 46.5436 40.6205C46.1908 40.0412 45.9796 39.3867 45.9273 38.7104C45.8749 38.0341 45.9829 37.3549 46.2424 36.7282C46.5019 36.1015 46.9057 35.5448 47.4208 35.1034C47.936 34.6621 48.548 34.3485 49.2072 34.1882C53.5976 33.1223 53.5976 26.8756 49.2072 25.8125C48.5477 25.6527 47.9352 25.3394 47.4197 24.8982C46.9042 24.4569 46.5002 23.9002 46.2406 23.2733C45.981 22.6463 45.8731 21.9669 45.9258 21.2904C45.9785 20.6139 46.1902 19.9594 46.5436 19.3802C48.895 15.5214 44.4792 11.1057 40.6203 13.457C40.0411 13.8105 39.3866 14.0221 38.7101 14.0748C38.0335 14.1275 37.3542 14.0196 36.7272 13.76C36.1003 13.5004 35.5435 13.0964 35.1022 12.5809C34.661 12.0654 34.3477 11.453 34.1879 10.7935L34.1908 10.7907Z" stroke="#726DA8" stroke-width="5" shape-rendering="crispEdges"/>
<path d="M35 30C35 32.7614 32.7614 35 30 35C27.2386 35 25 32.7614 25 30C25 27.2386 27.2386 25 30 25C32.7614 25 35 27.2386 35 30Z" stroke="#726DA8" stroke-width="5" shape-rendering="crispEdges"/>
</g>
<defs>
<filter id="filter0_d_16_4" x="1" y="5" width="58" height="58" filterUnits="userSpaceOnUse" color-interpolation-filters="sRGB">
<feFlood flood-opacity="0" result="BackgroundImageFix"/>
<feColorMatrix in="SourceAlpha" type="matrix" values="0 0 0 0 0 0 0 0 0 0 0 0 0 0 0 0 0 0 127 0" result="hardAlpha"/>
<feOffset dy="4"/>
<feGaussianBlur stdDeviation="2"/>
<feComposite in2="hardAlpha" operator="out"/>
<feColorMatrix type="matrix" values="0 0 0 0 0 0 0 0 0 0 0 0 0 0 0 0 0 0 0.25 0"/>
<feBlend mode="normal" in2="BackgroundImageFix" result="effect1_dropShadow_16_4"/>
<feBlend mode="normal" in="SourceGraphic" in2="effect1_dropShadow_16_4" result="shape"/>
</filter>
</defs>
</svg>
